<svg width="20" height="24" viewBox="0 0 20 24" fill="none" xmlns="http://www.w3.org/2000/svg">
<path d="M0.757812 7.78691V16.6332C0.757812 17.198 1.05966 17.7202 1.54855 18.0017L9.20966 22.4258C9.69855 22.7073 10.3004 22.7073 10.7893 22.4258L18.4504 18.0017C18.9393 17.7202 19.2411 17.198 19.2411 16.6332V7.78691C19.2411 7.22209 18.9393 6.69987 18.4504 6.41839L10.7893 1.99431C10.3004 1.71283 9.69855 1.71283 9.20966 1.99431L1.5467 6.41839C1.05781 6.69987 0.757812 7.22209 0.757812 7.78691Z" fill="#213147"/>
<path d="M11.6734 13.9263L10.5808 16.9226C10.5512 17.006 10.5512 17.0967 10.5808 17.18L12.4604 22.3356L14.6345 21.08L12.0253 13.9263C11.966 13.7615 11.7327 13.7615 11.6734 13.9263Z" fill="#12AAFF"/>
<path d="M13.8651 8.88728C13.8058 8.72247 13.5725 8.72247 13.5133 8.88728L12.4207 11.8836C12.391 11.9669 12.391 12.0577 12.4207 12.141L15.5003 20.5817L17.6744 19.3262L13.8651 8.88728Z" fill="#12AAFF"/>
<path d="M10 2.32588C10.0537 2.32588 10.1074 2.3407 10.1556 2.36662L18.4463 7.15366C18.5426 7.20922 18.6019 7.31292 18.6019 7.42218V16.9944C18.6019 17.1055 18.5426 17.2074 18.4463 17.2629L10.1556 22.05C10.1093 22.0777 10.0537 22.0907 10 22.0907C9.9463 22.0907 9.89259 22.0759 9.84445 22.05L1.5537 17.2666C1.45741 17.2111 1.39815 17.1074 1.39815 16.9981V7.42403C1.39815 7.31292 1.45741 7.21107 1.5537 7.15551L9.84445 2.36848C9.89259 2.3407 9.9463 2.32588 10 2.32588ZM10 0.927734C9.70556 0.927734 9.40926 1.00366 9.14445 1.15736L0.855556 5.94255C0.325926 6.24811 0 6.81292 0 7.42403V16.9963C0 17.6074 0.325926 18.1722 0.855556 18.4777L9.1463 23.2648C9.41111 23.4166 9.70556 23.4944 10.0019 23.4944C10.2963 23.4944 10.5926 23.4185 10.8574 23.2648L19.1481 18.4777C19.6778 18.1722 20.0037 17.6074 20.0037 16.9963V7.42403C20.0037 6.81292 19.6778 6.24811 19.1481 5.94255L10.8556 1.15736C10.5907 1.00366 10.2944 0.927734 10 0.927734Z" fill="#9DCCED"/>
<path d="M4.51562 20.5928L5.27859 18.5039L6.81377 19.7798L5.37859 21.0909L4.51562 20.5928Z" fill="#213147"/>
<path d="M9.30301 6.73926H7.20116C7.04375 6.73926 6.90301 6.83741 6.84931 6.98555L2.34375 19.3374L4.51782 20.593L9.47894 6.99111C9.52523 6.86889 9.43449 6.73926 9.30301 6.73926Z" fill="white"/>
<path d="M12.981 6.73926H10.8791C10.7217 6.73926 10.581 6.83741 10.5273 6.98555L5.38281 21.0893L7.55689 22.3448L13.1569 6.99111C13.2013 6.86889 13.1106 6.73926 12.981 6.73926Z" fill="white"/>
</svg>
