<svg width="20" height="20" viewBox="0 0 20 20" fill="none" xmlns="http://www.w3.org/2000/svg">
<circle cx="10" cy="10" r="10" fill="#F7931A"/>
<path d="M12.1154 8.57295C11.7999 9.80908 9.89365 9.16932 9.27554 9.01153L9.83393 6.82413C10.452 6.98192 12.4446 7.28218 12.1154 8.57295ZM11.7556 12.1044C11.4095 13.4642 9.12116 12.7149 8.37762 12.5255L9.00085 10.1181C9.74165 10.3083 12.1255 10.6886 11.7627 12.1083L11.7556 12.1044ZM14.2891 8.60853C14.4968 7.27904 13.4874 6.5603 12.1055 6.07316L12.565 4.27362L11.4686 3.99289L11.0207 5.74584C10.734 5.67227 10.4382 5.60289 10.1441 5.53448L10.5843 3.7704L9.49154 3.48709L9.03298 5.28486C8.79357 5.23016 8.55965 5.17385 8.33297 5.1169L6.82267 4.73L6.52396 5.90165C6.52396 5.90165 7.33973 6.09366 7.31764 6.10461C7.63363 6.14388 7.85989 6.42909 7.82623 6.7457L7.31089 8.79092C7.34946 8.80072 7.38737 8.81295 7.42439 8.82754L7.3088 8.79899L6.56959 11.6678C6.49946 11.8784 6.27252 11.993 6.06139 11.9244C6.07735 11.9331 5.26593 11.7204 5.26593 11.7204L4.71393 12.9725L6.14007 13.3364L6.92488 13.5346L6.46197 15.353L7.55665 15.6327L8.00779 13.8401C8.29685 13.9219 8.58882 13.9984 8.87998 14.0721L8.42158 15.8654L9.51626 16.1451L9.98272 14.3287C11.8545 14.6942 13.2588 14.5584 13.8598 12.8706C14.3425 11.5094 13.8509 10.7234 12.8723 10.2056C13.5904 10.0451 14.1351 9.57836 14.2821 8.60466L14.2891 8.60853Z" fill="white"/>
</svg>
