<svg width="14" height="16" viewBox="0 0 14 16" fill="none" xmlns="http://www.w3.org/2000/svg">
<path d="M4.54804 12.583C4.1271 12.583 3.7708 12.4371 3.47915 12.1455C3.18748 11.8538 3.04165 11.4975 3.04165 11.0766V1.58943C3.04165 1.16848 3.18748 0.812174 3.47915 0.520508C3.7708 0.228841 4.1271 0.0830078 4.54804 0.0830078H11.5352C11.9561 0.0830078 12.3124 0.228841 12.6041 0.520508C12.8958 0.812174 13.0416 1.16848 13.0416 1.58943V11.0766C13.0416 11.4975 12.8958 11.8538 12.6041 12.1455C12.3124 12.4371 11.9561 12.583 11.5352 12.583H4.54804ZM4.54804 11.333H11.5352C11.5993 11.333 11.658 11.3063 11.7115 11.2529C11.7649 11.1994 11.7916 11.1407 11.7916 11.0766V1.58943C11.7916 1.52531 11.7649 1.46654 11.7115 1.41311C11.658 1.3597 11.5993 1.33299 11.5352 1.33299H4.54804C4.48393 1.33299 4.42517 1.3597 4.37175 1.41311C4.31832 1.46654 4.2916 1.52531 4.2916 1.58943V11.0766C4.2916 11.1407 4.31832 11.1994 4.37175 11.2529C4.42517 11.3063 4.48393 11.333 4.54804 11.333ZM1.6314 15.4996C1.21047 15.4996 0.854167 15.3538 0.5625 15.0621C0.270833 14.7704 0.125 14.4141 0.125 13.9932V3.25609H1.37498V13.9932C1.37498 14.0573 1.40169 14.1161 1.4551 14.1695C1.50853 14.2229 1.5673 14.2496 1.6314 14.2496H9.86852V15.4996H1.6314Z" fill="#554B6A"/>
</svg>
