<svg width="20" height="21" viewBox="0 0 20 21" fill="none" xmlns="http://www.w3.org/2000/svg">
<path d="M10 20.0723C15.523 20.0723 20 15.5953 20 10.0723C20 4.54927 15.523 0.0722656 10 0.0722656C4.477 0.0722656 0 4.54927 0 10.0723C0 15.5953 4.477 20.0723 10 20.0723Z" fill="#627EEA"/>
<path d="M10.0078 2.07227L5.39941 10.2206L10.0078 7.98879V2.07227Z" fill="white"/>
<path d="M10.0078 7.98828L5.39941 10.2201L10.0078 13.1233V7.98828Z" fill="#C0CBF6"/>
<path d="M14.6171 10.2206L10.0078 2.07227V7.98879L14.6171 10.2206Z" fill="#C0CBF6"/>
<path d="M10.0078 13.1233L14.6171 10.2201L10.0078 7.98828V13.1233Z" fill="#8197EE"/>
<path d="M5.39941 11.1523L10.0078 18.0724V14.0537L5.39941 11.1523Z" fill="white"/>
<path d="M10.0078 14.0537V18.0724L14.6197 11.1523L10.0078 14.0537Z" fill="#C0CBF6"/>
</svg>
