<svg width="20" height="20" viewBox="0 0 20 20" fill="none" xmlns="http://www.w3.org/2000/svg">
<path d="M10 20C15.523 20 20 15.523 20 10C20 4.477 15.523 0 10 0C4.477 0 0 4.477 0 10C0 15.523 4.477 20 10 20Z" fill="#8247E5"/>
<path d="M13.6005 7.41201C13.3446 7.25622 13.0157 7.25622 12.7232 7.41201L10.6762 8.69728L9.28721 9.51519L7.27676 10.8005C7.02089 10.9563 6.69191 10.9563 6.39948 10.8005L4.82768 9.78782C4.5718 9.63203 4.38903 9.32045 4.38903 8.96992V7.02253C4.38903 6.71095 4.53525 6.39937 4.82768 6.20463L6.39948 5.23093C6.65535 5.07514 6.98433 5.07514 7.27676 5.23093L8.84856 6.24358C9.10444 6.39937 9.28721 6.71095 9.28721 7.06148V8.34676L10.6762 7.4899V6.16568C10.6762 5.8541 10.53 5.54252 10.2376 5.34778L7.31332 3.51723C7.05744 3.36144 6.72846 3.36144 6.43603 3.51723L3.43864 5.38673C3.14621 5.54252 3 5.8541 3 6.16568V9.82677C3 10.1384 3.14621 10.4499 3.43864 10.6447L6.39948 12.4752C6.65535 12.631 6.98433 12.631 7.27676 12.4752L9.28721 11.2289L10.6762 10.372L12.6867 9.12571C12.9426 8.96992 13.2715 8.96992 13.564 9.12571L15.1358 10.0994C15.3916 10.2552 15.5744 10.5668 15.5744 10.9173V12.8647C15.5744 13.1763 15.4282 13.4879 15.1358 13.6826L13.6005 14.6563C13.3446 14.8121 13.0157 14.8121 12.7232 14.6563L11.1514 13.6826C10.8956 13.5268 10.7128 13.2152 10.7128 12.8647V11.6184L9.32376 12.4752V13.7605C9.32376 14.0721 9.46997 14.3837 9.7624 14.5784L12.7232 16.4089C12.9791 16.5647 13.3081 16.5647 13.6005 16.4089L16.5614 14.5784C16.8172 14.4226 17 14.111 17 13.7605V10.0605C17 9.74887 16.8538 9.43729 16.5614 9.24255L13.6005 7.41201Z" fill="white"/>
</svg>
