<svg width="114" height="32" viewBox="0 0 114 32" fill="none" xmlns="http://www.w3.org/2000/svg">
<path d="M105.444 22.0306H103.227V10.4934H105.232L105.468 12.2629C106.199 10.9417 107.662 10.1631 109.29 10.1631C112.334 10.1631 113.726 12.027 113.726 14.9761V22.0306H111.508V15.4716C111.508 13.1359 110.423 12.1921 108.724 12.1921C106.648 12.1921 105.444 13.6785 105.444 15.9199V22.0306Z" fill="#554B6A"/>
<path d="M96.0066 22.3137C92.6092 22.3137 90.2734 19.86 90.2734 16.2738C90.2734 12.664 92.562 10.1631 95.9123 10.1631C99.1918 10.1631 101.339 12.4281 101.339 15.8491V16.6749L92.4204 16.6985C92.5856 19.1286 93.8596 20.4734 96.0538 20.4734C97.7761 20.4734 98.9086 19.7656 99.2861 18.4444H101.362C100.796 20.9217 98.8614 22.3137 96.0066 22.3137ZM95.9123 12.027C93.9776 12.027 92.7507 13.183 92.4676 15.2121H99.121C99.121 13.301 97.8705 12.027 95.9123 12.027Z" fill="#554B6A"/>
<path d="M82.098 22.3139C78.7478 22.3139 76.7188 19.813 76.7188 16.2976C76.7188 12.7586 78.7714 10.1633 82.1924 10.1633C83.9619 10.1633 85.4483 10.9419 86.2269 12.3575V4.66602H88.4211V22.0308H86.4392L86.2505 19.931C85.4955 21.5117 83.9383 22.3139 82.098 22.3139ZM82.5463 20.3084C84.8113 20.3084 86.2033 18.6333 86.2033 16.2268C86.2033 13.8674 84.8113 12.1687 82.5463 12.1687C80.2814 12.1687 78.9601 13.8674 78.9601 16.2268C78.9601 18.6097 80.2814 20.3084 82.5463 20.3084Z" fill="#554B6A"/>
<path d="M76.3952 10.3994V12.4284H75.4043C73.3045 12.4284 72.0068 13.7025 72.0068 15.9202V22.0309H69.7891V10.5173H71.8653L72.0068 12.2633C72.4787 11.06 73.6348 10.2578 75.2155 10.2578C75.6166 10.2578 75.9469 10.305 76.3952 10.3994Z" fill="#554B6A"/>
<path d="M61.151 22.3137C58.6737 22.3137 57.2109 20.9217 57.2109 18.8219C57.2109 16.6985 58.7917 15.3772 61.5049 15.1649L65.1383 14.8818V14.5515C65.1383 12.6168 63.9822 11.9326 62.4251 11.9326C60.5612 11.9326 59.4995 12.7584 59.4995 14.1504H57.5648C57.5648 11.7438 59.5467 10.1631 62.5195 10.1631C65.3743 10.1631 67.3089 11.6731 67.3089 14.7874V22.0306H65.4214L65.1855 20.1667C64.5957 21.4879 63.0149 22.3137 61.151 22.3137ZM61.7881 20.5914C63.8879 20.5914 65.1619 19.223 65.1619 17.0524V16.4389L62.2127 16.6749C60.2545 16.8636 59.4523 17.6186 59.4523 18.7511C59.4523 19.9779 60.3489 20.5914 61.7881 20.5914Z" fill="#554B6A"/>
<path d="M43.5352 15.9671C43.5352 12.7112 45.635 10.1631 48.9852 10.1631C50.8491 10.1631 52.2883 11.0124 53.0197 12.4516L53.1849 10.4934H55.1667V21.5587C55.1667 25.1921 52.9253 27.5042 49.3863 27.5042C46.2484 27.5042 44.1014 25.7347 43.6767 22.8092H45.8945C46.1776 24.5079 47.4517 25.4988 49.3863 25.4988C51.5569 25.4988 52.9725 24.0832 52.9725 21.889V19.5769C52.2175 20.9217 50.7076 21.7239 48.8909 21.7239C45.6114 21.7239 43.5352 19.1994 43.5352 15.9671ZM45.7529 15.9199C45.7529 18.0905 47.0978 19.7892 49.2684 19.7892C51.5097 19.7892 52.8781 18.1848 52.8781 15.9199C52.8781 13.7021 51.5569 12.0977 49.2919 12.0977C47.0742 12.0977 45.7529 13.7965 45.7529 15.9199Z" fill="#554B6A"/>
<path fill-rule="evenodd" clip-rule="evenodd" d="M15.9738 0C20.2843 0 23.9237 2.87812 25.0811 6.82046C29.0734 7.94368 32.0005 11.6167 32.0005 15.9745C32.0005 20.316 29.0953 23.9778 25.126 25.1158C23.9892 29.0908 20.3339 32 16.0002 32C11.6665 32 8.01119 29.0908 6.87447 25.1158C2.90517 23.9777 0 20.316 0 15.9745C1.63071e-06 11.6377 2.89894 7.97914 6.8617 6.8369C8.01379 2.88612 11.6573 0 15.9738 0Z" fill="#C7E0FD"/>
<path d="M16.6753 23.1492C12.7196 23.1492 10 20.2923 10 16.1168C10 11.9138 12.6646 9.00195 16.5654 9.00195C20.3838 9.00195 22.8836 11.6391 22.8836 15.6223V16.5838L12.4998 16.6113C12.6921 19.4407 14.1755 21.0065 16.7303 21.0065C18.7356 21.0065 20.0542 20.1824 20.4937 18.6441H22.9111C22.2518 21.5285 19.9992 23.1492 16.6753 23.1492ZM16.5654 11.1721C14.3129 11.1721 12.8844 12.5182 12.5547 14.8806H20.3014C20.3014 12.6555 18.8455 11.1721 16.5654 11.1721Z" fill="#E36492"/>
</svg>
