<svg width="32" height="32" viewBox="0 0 32 32" fill="none" xmlns="http://www.w3.org/2000/svg">
<path fill-rule="evenodd" clip-rule="evenodd" d="M15.9738 0C20.2843 0 23.9237 2.87812 25.0811 6.82046C29.0734 7.94368 32.0005 11.6167 32.0005 15.9745C32.0005 20.316 29.0953 23.9778 25.126 25.1158C23.9892 29.0908 20.3339 32 16.0002 32C11.6665 32 8.01119 29.0908 6.87447 25.1158C2.90517 23.9777 0 20.316 0 15.9745C1.63071e-06 11.6377 2.89894 7.97914 6.8617 6.8369C8.01379 2.88612 11.6573 0 15.9738 0Z" fill="#C7E0FD"/>
<path d="M16.6753 23.1492C12.7196 23.1492 10 20.2923 10 16.1168C10 11.9138 12.6646 9.00195 16.5654 9.00195C20.3838 9.00195 22.8836 11.6391 22.8836 15.6223V16.5838L12.4998 16.6113C12.6921 19.4407 14.1755 21.0065 16.7303 21.0065C18.7356 21.0065 20.0542 20.1824 20.4937 18.6441H22.9111C22.2518 21.5285 19.9992 23.1492 16.6753 23.1492ZM16.5654 11.1721C14.3129 11.1721 12.8844 12.5182 12.5547 14.8806H20.3014C20.3014 12.6555 18.8455 11.1721 16.5654 11.1721Z" fill="#E36492"/>
</svg>
