<svg width="14" height="14" viewBox="0 0 14 14" fill="none" xmlns="http://www.w3.org/2000/svg">
<path d="M9.1987 10.133L10.132 9.19967L7.66536 6.73301V3.66634H6.33203V7.26634L9.1987 10.133ZM6.9987 13.6663C6.07648 13.6663 5.20981 13.4913 4.3987 13.1413C3.58759 12.7913 2.88203 12.3163 2.28203 11.7163C1.68203 11.1163 1.20703 10.4108 0.857031 9.59967C0.507031 8.78856 0.332031 7.9219 0.332031 6.99967C0.332031 6.07745 0.507031 5.21079 0.857031 4.39967C1.20703 3.58856 1.68203 2.88301 2.28203 2.28301C2.88203 1.68301 3.58759 1.20801 4.3987 0.858008C5.20981 0.508008 6.07648 0.333008 6.9987 0.333008C7.92092 0.333008 8.78759 0.508008 9.5987 0.858008C10.4098 1.20801 11.1154 1.68301 11.7154 2.28301C12.3154 2.88301 12.7904 3.58856 13.1404 4.39967C13.4904 5.21079 13.6654 6.07745 13.6654 6.99967C13.6654 7.9219 13.4904 8.78856 13.1404 9.59967C12.7904 10.4108 12.3154 11.1163 11.7154 11.7163C11.1154 12.3163 10.4098 12.7913 9.5987 13.1413C8.78759 13.4913 7.92092 13.6663 6.9987 13.6663ZM6.9987 12.333C8.47647 12.333 9.73481 11.8136 10.7737 10.7747C11.8126 9.73579 12.332 8.47745 12.332 6.99967C12.332 5.5219 11.8126 4.26356 10.7737 3.22467C9.73481 2.18579 8.47647 1.66634 6.9987 1.66634C5.52092 1.66634 4.26259 2.18579 3.2237 3.22467C2.18481 4.26356 1.66536 5.5219 1.66536 6.99967C1.66536 8.47745 2.18481 9.73579 3.2237 10.7747C4.26259 11.8136 5.52092 12.333 6.9987 12.333Z" fill="#554B6A"/>
</svg>
